name rise30.8019peak61.5557fall86.2505.mot
datacolumns 19
datarows 35
range 16.11494500000000 16.17160400000000
endheader
time	ground_force1_vx	ground_force1_vy	ground_force1_vz	ground_force1_px	ground_force1_py	ground_force1_pz	ground_force2_vx	ground_force2_vy	ground_force2_vz	ground_force2_px	ground_force2_py	ground_force2_pz	ground_torque1_x	ground_torque1_y	ground_torque1_z	ground_torque2_x	ground_torque2_y	ground_torque2_z	
16.11494500000000	-5.91942100000000	42.76147300000000	-7.53362000000000	0.25010700000000	0.00000000000000	0.08233000000000	-55.02474600000000	737.66445899999997	-37.34380000000000	0.03035900000000	0.00000000000000	-0.07079400000000	0.00000000000000	-3.96678600000000	0.00000000000000	0.00000000000000	-9.36996300000000	0.00000000000000	
16.11661800000000	-6.39654600000000	50.11978900000000	-8.46427900000000	0.25668800000000	0.00000000000000	0.08305800000000	-56.02699900000000	734.48074099999997	-36.98310800000000	0.02936300000000	0.00000000000000	-0.07064600000000	0.00000000000000	-4.54106800000000	0.00000000000000	0.00000000000000	-9.42139600000000	0.00000000000000	
16.11827700000000	-6.73522400000000	57.56899600000000	-9.30746200000000	0.26268100000000	0.00000000000000	0.08370400000000	-57.04047000000000	731.16631800000005	-36.61140300000000	0.02837400000000	0.00000000000000	-0.07049600000000	0.00000000000000	-5.08466800000000	0.00000000000000	0.00000000000000	-9.47649100000000	0.00000000000000	
16.11994200000000	-6.91884500000000	65.01237399999999	-10.04328500000000	0.26816900000000	0.00000000000000	0.08428200000000	-58.06312300000000	727.71793200000002	-36.22822400000000	0.02739300000000	0.00000000000000	-0.07034400000000	0.00000000000000	-5.58522100000000	0.00000000000000	0.00000000000000	-9.53500200000000	0.00000000000000	
16.12161000000000	-6.93809800000000	72.37655500000000	-10.65863800000000	0.27322100000000	0.00000000000000	0.08480200000000	-59.09282300000000	724.13236900000004	-35.83311900000000	0.02642000000000	0.00000000000000	-0.07019000000000	0.00000000000000	-6.03376200000000	0.00000000000000	0.00000000000000	-9.59666800000000	0.00000000000000	
16.12327600000000	-6.79077700000000	79.61379900000000	-11.14726700000000	0.27789200000000	0.00000000000000	0.08527300000000	-60.12733700000000	720.40647000000001	-35.42564800000000	0.02545500000000	0.00000000000000	-0.07003500000000	0.00000000000000	-6.42493800000000	0.00000000000000	0.00000000000000	-9.66121500000000	0.00000000000000	
16.12494400000000	-6.48105200000000	86.70177400000000	-11.50927900000000	0.28222800000000	0.00000000000000	0.08570300000000	-61.16434500000000	716.53714200000002	-35.00538900000000	0.02450100000000	0.00000000000000	-0.06987700000000	0.00000000000000	-6.75689000000000	0.00000000000000	0.00000000000000	-9.72835100000000	0.00000000000000	
16.12660600000000	-6.01833700000000	93.64129500000000	-11.75020800000000	0.28626400000000	0.00000000000000	0.08609600000000	-62.20143800000000	712.52137900000002	-34.57193500000000	0.02355600000000	0.00000000000000	-0.06971700000000	0.00000000000000	-7.03086500000000	0.00000000000000	0.00000000000000	-9.79777200000000	0.00000000000000	
16.12827300000000	-5.41593100000000	100.45254400000000	-11.87980300000000	0.29003300000000	0.00000000000000	0.08645800000000	-63.23613200000000	708.35626999999999	-34.12490900000000	0.02262300000000	0.00000000000000	-0.06955600000000	0.00000000000000	-7.25063100000000	0.00000000000000	0.00000000000000	-9.86915900000000	0.00000000000000	
16.12994100000000	-4.68957000000000	107.17035900000000	-11.91067600000000	0.29355900000000	0.00000000000000	0.08679200000000	-64.26586600000000	704.03901900000005	-33.66395700000000	0.02170000000000	0.00000000000000	-0.06939200000000	0.00000000000000	-7.42179800000000	0.00000000000000	0.00000000000000	-9.94218300000000	0.00000000000000	
16.13161100000000	-3.85603900000000	113.83914700000000	-11.85695400000000	0.29686600000000	0.00000000000000	0.08710300000000	-65.28801600000000	699.56695600000000	-33.18875900000000	0.02079000000000	0.00000000000000	-0.06922600000000	0.00000000000000	-7.55108400000000	0.00000000000000	0.00000000000000	-10.01650000000000	0.00000000000000	
16.13327500000000	-2.93193500000000	120.50788600000000	-11.73303900000000	0.29997100000000	0.00000000000000	0.08739300000000	-66.29989399999999	694.93755599999997	-32.69902700000000	0.01989300000000	0.00000000000000	-0.06905800000000	0.00000000000000	-7.64563700000000	0.00000000000000	0.00000000000000	-10.09175800000000	0.00000000000000	
16.13493900000000	-1.93265600000000	127.22562000000001	-11.55256100000000	0.30289000000000	0.00000000000000	0.08766500000000	-67.29876400000001	690.14845400000002	-32.19451600000000	0.01900800000000	0.00000000000000	-0.06888700000000	0.00000000000000	-7.71241800000000	0.00000000000000	0.00000000000000	-10.16759400000000	0.00000000000000	
16.13661100000000	-0.87166500000000	134.03769900000000	-11.32756900000000	0.30563700000000	0.00000000000000	0.08792000000000	-68.28184200000000	685.19745999999998	-31.67501700000000	0.01813700000000	0.00000000000000	-0.06871500000000	0.00000000000000	-7.75771900000000	0.00000000000000	0.00000000000000	-10.24363500000000	0.00000000000000	
16.13827600000000	0.23997800000000	140.98293400000000	-11.06798300000000	0.30822500000000	0.00000000000000	0.08816000000000	-69.24630800000000	680.08257800000001	-31.14037200000000	0.01727900000000	0.00000000000000	-0.06854000000000	0.00000000000000	-7.78681000000000	0.00000000000000	0.00000000000000	-10.31950200000000	0.00000000000000	
16.13994300000000	1.39380900000000	148.09171300000000	-10.78130600000000	0.31066200000000	0.00000000000000	0.08838800000000	-70.18931200000000	674.80201899999997	-30.59046600000000	0.01643500000000	0.00000000000000	-0.06836400000000	0.00000000000000	-7.80372300000000	0.00000000000000	0.00000000000000	-10.39480700000000	0.00000000000000	
16.14160700000000	2.58393200000000	155.38506599999999	-10.47255900000000	0.31295800000000	0.00000000000000	0.08860400000000	-71.10798400000000	669.35422200000005	-30.02523700000000	0.01560500000000	0.00000000000000	-0.06818400000000	0.00000000000000	-7.81118000000000	0.00000000000000	0.00000000000000	-10.46915800000000	0.00000000000000	
16.14327100000000	3.80679500000000	162.87455399999999	-10.14442900000000	0.31512100000000	0.00000000000000	0.08880900000000	-71.99944200000000	663.73787000000004	-29.44467400000000	0.01478900000000	0.00000000000000	-0.06800300000000	0.00000000000000	-7.81062500000000	0.00000000000000	0.00000000000000	-10.54215600000000	0.00000000000000	
16.14494000000000	5.06083400000000	170.56285900000000	-9.79754600000000	0.31715800000000	0.00000000000000	0.08900400000000	-72.86079800000000	657.95190300000002	-28.84882300000000	0.01398800000000	0.00000000000000	-0.06782000000000	0.00000000000000	-7.80234900000000	0.00000000000000	0.00000000000000	-10.61340000000000	0.00000000000000	
16.14660700000000	6.34602400000000	178.44489300000001	-9.43088100000000	0.31907400000000	0.00000000000000	0.08919100000000	-73.68916900000001	651.99553500000002	-28.23778600000000	0.01320100000000	0.00000000000000	-0.06763400000000	0.00000000000000	-7.78569100000000	0.00000000000000	0.00000000000000	-10.68248600000000	0.00000000000000	
16.14827700000000	7.66340900000000	186.50924699999999	-9.04217700000000	0.32087400000000	0.00000000000000	0.08937000000000	-74.48168699999999	645.86826799999994	-27.61172300000000	0.01242900000000	0.00000000000000	-0.06744600000000	0.00000000000000	-7.75926200000000	0.00000000000000	0.00000000000000	-10.74900700000000	0.00000000000000	
16.14994100000000	9.01462200000000	194.73981200000000	-8.62840900000000	0.32256400000000	0.00000000000000	0.08954200000000	-75.23550400000001	639.56990599999995	-26.97085500000000	0.01167200000000	0.00000000000000	-0.06725500000000	0.00000000000000	-7.72119600000000	0.00000000000000	0.00000000000000	-10.81255800000000	0.00000000000000	
16.15161200000000	10.40146000000000	203.11742400000000	-8.18620900000000	0.32414800000000	0.00000000000000	0.08970800000000	-75.94780600000000	633.10056299999997	-26.31546300000000	0.01092800000000	0.00000000000000	-0.06706200000000	0.00000000000000	-7.66938900000000	0.00000000000000	0.00000000000000	-10.87273400000000	0.00000000000000	
16.15327600000000	11.82551000000000	211.62139600000000	-7.71223900000000	0.32562900000000	0.00000000000000	0.08986700000000	-76.61581800000000	626.46067400000004	-25.64589200000000	0.01019900000000	0.00000000000000	-0.06686700000000	0.00000000000000	-7.60171200000000	0.00000000000000	0.00000000000000	-10.92913300000000	0.00000000000000	
16.15494300000000	13.28786800000000	220.23085900000001	-7.20349900000000	0.32701000000000	0.00000000000000	0.09002100000000	-77.23681800000000	619.65099699999996	-24.96255000000000	0.00948500000000	0.00000000000000	-0.06667000000000	0.00000000000000	-7.51619400000000	0.00000000000000	0.00000000000000	-10.98135500000000	0.00000000000000	
16.15661100000000	14.78893600000000	228.92584500000001	-6.65755600000000	0.32829400000000	0.00000000000000	0.09017000000000	-77.80814300000000	612.67262000000005	-24.26590700000000	0.00878400000000	0.00000000000000	-0.06647100000000	0.00000000000000	-7.41115900000000	0.00000000000000	0.00000000000000	-11.02900600000000	0.00000000000000	
16.15827800000000	16.32830600000000	237.68808999999999	-6.07268600000000	0.32948400000000	0.00000000000000	0.09031400000000	-78.32720399999999	605.52696200000003	-23.55650200000000	0.00809600000000	0.00000000000000	-0.06626900000000	0.00000000000000	-7.28531900000000	0.00000000000000	0.00000000000000	-11.07170100000000	0.00000000000000	
16.15994000000000	17.90472400000000	246.50153900000001	-5.44795300000000	0.33058200000000	0.00000000000000	0.09045400000000	-78.79149099999999	598.21576700000003	-22.83493600000000	0.00742200000000	0.00000000000000	-0.06606500000000	0.00000000000000	-7.13782400000000	0.00000000000000	0.00000000000000	-11.10905800000000	0.00000000000000	
16.16160900000000	19.51611300000000	255.35259400000001	-4.78320400000000	0.33159000000000	0.00000000000000	0.09058900000000	-79.19858900000000	590.74110399999995	-22.10187600000000	0.00676100000000	0.00000000000000	-0.06585900000000	0.00000000000000	-6.96827500000000	0.00000000000000	0.00000000000000	-11.14071100000000	0.00000000000000	
16.16327600000000	21.15965800000000	264.23012899999998	-4.07903000000000	0.33251000000000	0.00000000000000	0.09072100000000	-79.54618700000000	583.10535800000002	-21.35805600000000	0.00611200000000	0.00000000000000	-0.06565100000000	0.00000000000000	-6.77670000000000	0.00000000000000	0.00000000000000	-11.16630000000000	0.00000000000000	
16.16494100000000	22.83191200000000	273.12531999999999	-3.33667400000000	0.33334500000000	0.00000000000000	0.09084900000000	-79.83209100000001	575.31122900000003	-20.60427400000000	0.00547500000000	0.00000000000000	-0.06544000000000	0.00000000000000	-6.56351300000000	0.00000000000000	0.00000000000000	-11.18548100000000	0.00000000000000	
16.16661200000000	24.52894100000000	282.03134399999999	-2.55791300000000	0.33409400000000	0.00000000000000	0.09097300000000	-80.05423300000000	567.36171899999999	-19.84139200000000	0.00485000000000	0.00000000000000	-0.06522700000000	0.00000000000000	-6.32945200000000	0.00000000000000	0.00000000000000	-11.19792400000000	0.00000000000000	
16.16827200000000	26.24645600000000	290.94299300000000	-1.74494100000000	0.33476000000000	0.00000000000000	0.09109500000000	-80.21068300000000	559.26013399999999	-19.07033600000000	0.00423600000000	0.00000000000000	-0.06501300000000	0.00000000000000	-6.07550600000000	0.00000000000000	0.00000000000000	-11.20331600000000	0.00000000000000	
16.16994000000000	27.97996200000000	299.85625299999998	-0.90023500000000	0.33534500000000	0.00000000000000	0.09121300000000	-80.29966300000000	551.01007800000002	-18.29209300000000	0.00363200000000	0.00000000000000	-0.06479600000000	0.00000000000000	-5.80284800000000	0.00000000000000	0.00000000000000	-11.20136100000000	0.00000000000000	
16.17160400000000	29.72487300000000	308.76789200000002	-0.02644200000000	0.33584900000000	0.00000000000000	0.09132900000000	-80.31955100000000	542.61545300000000	-17.50770600000000	0.00303800000000	0.00000000000000	-0.06457700000000	0.00000000000000	-5.51276500000000	0.00000000000000	0.00000000000000	-11.19178400000000	0.00000000000000	
